# xmcd CD database file
#
# Track frame offsets:
#	150
#	16789
#	34420
#	59396
#	74945
#	96960
#	116992
#	128117
#	145178
#
# Disc length: 2151 seconds
#
# Revision: 0
# Processed by: cddbd v1.5.2PL0 Copyright (c) Steve Scherf et al.
# Submitted via: CDex 1.70beta2
#
DISCID=8a086509
DTITLE=BERLIN BLUES - BERLIN BLUES - EN LA ESTACION
DYEAR=2009
DGENRE=Blues
TTITLE0=La "chati" del "chat"
TTITLE1=Dame
TTITLE2=Sentir de corazon
TTITLE3=Mi generación
TTITLE4=Te sientes importante
TTITLE5=En la estación
TTITLE6=Blues del camino
TTITLE7=Miro hacia delante
TTITLE8=Deseo
EXTD=YEAR: 2009
EXTT0=
EXTT1=
EXTT2=
EXTT3=
EXTT4=
EXTT5=
EXTT6=
EXTT7=
EXTT8=
PLAYORDER=
